<svg width="448" height="332" viewBox="0 0 448 332" fill="none" xmlns="http://www.w3.org/2000/svg">
<path d="M446.8 164.201L269.9 1.60075C269.2 0.900754 268.1 0.800752 267.2 1.20075C266.3 1.60075 265.7 2.50076 265.7 3.50076V79.0008L181.4 1.60075C180.7 0.900754 179.6 0.800752 178.7 1.20075C177.8 1.60075 177.2 2.50076 177.2 3.50076V79.0008L92.9998 1.60075C92.2998 0.900754 91.1998 0.800752 90.2998 1.20075C89.3998 1.60075 88.7998 2.50076 88.7998 3.50076V79.0008L4.49981 1.60075C3.79981 0.900754 2.6998 0.800752 1.7998 1.20075C0.899805 1.60075 0.299805 2.50076 0.299805 3.50076V328.701C0.299805 329.701 0.899805 330.601 1.7998 331.001C2.0998 331.101 2.4998 331.201 2.7998 331.201C3.3998 331.201 3.99981 331.001 4.49981 330.501L88.7998 253.101V328.701C88.7998 329.701 89.3998 330.601 90.2998 331.001C90.5998 331.101 90.9998 331.201 91.2998 331.201C91.8998 331.201 92.4998 331.001 92.9998 330.501L177.3 253.101V328.701C177.3 329.701 177.9 330.601 178.8 331.001C179.1 331.101 179.5 331.201 179.8 331.201C180.4 331.201 181 331.001 181.5 330.501L265.8 253.101V328.701C265.8 329.701 266.4 330.601 267.3 331.001C267.6 331.101 268 331.201 268.3 331.201C268.9 331.201 269.5 331.001 270 330.501L446.9 167.901C447.4 167.401 447.7 166.801 447.7 166.101C447.7 165.401 447.4 164.601 446.8 164.201ZM182.3 9.10075L265.8 85.8008V160.301L182.3 83.6008V9.10075ZM270.7 90.4007L353 166.001L270.7 241.601V90.4007ZM182.3 90.4007L264.6 166.001L182.3 241.601V90.4007ZM93.7998 9.10075L177.3 85.8008V160.301L93.7998 83.6008V9.10075ZM176.1 166.001L93.7998 241.601V90.4007L176.1 166.001ZM5.39981 322.901V9.10075L88.8998 85.8008V246.201L5.39981 322.901ZM93.7998 322.901V248.401L177.3 171.701V246.201L93.7998 322.901ZM182.3 322.901V248.401L265.8 171.701V246.201L182.3 322.901ZM270.7 322.901V248.401L358.4 167.801C358.9 167.301 359.2 166.701 359.2 166.001C359.2 165.301 358.9 164.601 358.4 164.201L270.7 83.6008V9.10075L441.5 166.001L270.7 322.901Z" fill="#a7a7a7"/>
</svg>
