<svg width="169" height="50" xmlns="http://www.w3.org/2000/svg"><g fill="none"><path d="M162.987 50H5.92A5.93 5.93 0 0 1 0 44.084V5.907A5.92 5.92 0 0 1 5.92 0h157.067C166.25 0 169 2.65 169 5.907v38.177c0 3.256-2.75 5.916-6.013 5.916z" fill="#A6A6A6"/><path d="M168 44.188a4.815 4.815 0 0 1-1.409 3.405 4.8 4.8 0 0 1-3.4 1.407H5.815A4.814 4.814 0 0 1 1 44.188V5.818A4.82 4.82 0 0 1 5.815 1H163.19c1.275 0 2.499.508 3.4 1.411A4.82 4.82 0 0 1 168 5.818l.001 38.37z" fill="#000"/><path d="M37.26 24.965c-.035-3.967 3.23-5.897 3.38-5.987-1.85-2.71-4.716-3.081-5.723-3.11-2.408-.256-4.744 1.448-5.97 1.448-1.251 0-3.14-1.424-5.175-1.382-2.62.04-5.07 1.565-6.414 3.933-2.774 4.828-.705 11.924 1.952 15.827 1.33 1.91 2.883 4.045 4.916 3.97 1.989-.082 2.732-1.275 5.132-1.275 2.379 0 3.076 1.275 5.15 1.227 2.134-.034 3.478-1.92 4.761-3.849 1.536-2.19 2.153-4.348 2.178-4.459-.05-.017-4.146-1.589-4.186-6.343zM33.345 13.3c1.07-1.346 1.801-3.176 1.598-5.033-1.548.069-3.485 1.077-4.6 2.393-.986 1.16-1.867 3.06-1.64 4.846 1.74.13 3.525-.882 4.642-2.206zm34.167 26.955h-2.83l-1.55-4.995h-5.389l-1.477 4.995h-2.755L58.85 23.25h3.297l5.365 17.005zm-4.848-7.09l-1.402-4.44c-.148-.454-.426-1.522-.836-3.204h-.05c-.248 1.071-.51 2.14-.787 3.203l-1.377 4.44h4.452zm18.578.809c0 2.085-.55 3.733-1.649 4.943-.985 1.077-2.207 1.615-3.666 1.615-1.576 0-2.707-.58-3.396-1.74h-.05v6.46h-2.657V32.03c0-1.31-.034-2.656-.099-4.036h2.337l.148 1.943h.05c.886-1.464 2.231-2.195 4.035-2.195 1.411 0 2.589.571 3.531 1.715.945 1.144 1.416 2.65 1.416 4.517zm-2.707.1c0-1.194-.262-2.178-.788-2.952-.574-.808-1.346-1.212-2.313-1.212-.655 0-1.25.225-1.783.668-.533.448-.882 1.032-1.046 1.755a3.65 3.65 0 0 0-.123.83v2.045c0 .892.267 1.644.8 2.259.534.615 1.226.921 2.079.921 1 0 1.78-.396 2.336-1.185.559-.791.838-1.834.838-3.13zm16.461-.1c0 2.085-.55 3.733-1.65 4.943-.983 1.077-2.206 1.615-3.665 1.615-1.575 0-2.707-.58-3.395-1.74h-.05v6.46H83.58V32.03c0-1.31-.034-2.656-.099-4.036h2.337l.148 1.943h.05c.885-1.464 2.23-2.195 4.035-2.195 1.41 0 2.587.571 3.532 1.715.94 1.144 1.413 2.65 1.413 4.517zm-2.707.1c0-1.194-.263-2.178-.788-2.952-.575-.808-1.344-1.212-2.312-1.212-.653 0-1.285.237-1.785.668-.533.448-.88 1.032-1.044 1.755a3.722 3.722 0 0 0-.123.83v2.045c0 .892.266 1.644.797 2.259.534.613 1.226.921 2.081.921 1.001 0 1.78-.396 2.337-1.185.558-.791.837-1.834.837-3.13zm18.085 1.412c0 1.447-.49 2.624-1.473 3.532-1.08.993-2.584 1.489-4.517 1.489-1.785 0-3.215-.353-4.298-1.06l.615-2.27a7.148 7.148 0 0 0 3.841 1.086c1 0 1.78-.233 2.34-.695.556-.463.834-1.084.834-1.858 0-.69-.229-1.271-.689-1.743-.457-.471-1.221-.91-2.288-1.315-2.904-1.11-4.354-2.737-4.354-4.876 0-1.398.508-2.544 1.526-3.436 1.015-.893 2.368-1.339 4.06-1.339 1.51 0 2.763.27 3.764.808l-.664 2.22c-.935-.52-1.992-.781-3.174-.781-.935 0-1.665.236-2.189.706-.429.39-.672.952-.664 1.54a2.1 2.1 0 0 0 .762 1.665c.442.404 1.246.84 2.412 1.312 1.427.59 2.475 1.278 3.15 2.068.671.787 1.006 1.772 1.006 2.947zm8.785-5.448h-2.929v5.953c0 1.514.516 2.27 1.55 2.27.476 0 .87-.041 1.18-.126l.074 2.069c-.523.2-1.212.302-2.066.302-1.05 0-1.87-.329-2.461-.984-.59-.657-.886-1.759-.886-3.306v-6.18h-1.745V27.99h1.745v-2.245l2.61-.808v3.053h2.928v2.047zm13.214 3.985c0 1.885-.526 3.432-1.576 4.643-1.1 1.245-2.56 1.866-4.381 1.866-1.755 0-3.152-.596-4.194-1.79-1.042-1.193-1.563-2.7-1.563-4.515 0-1.9.536-3.457 1.612-4.667 1.073-1.211 2.52-1.817 4.342-1.817 1.754 0 3.166.597 4.232 1.792 1.02 1.158 1.528 2.655 1.528 4.488zm-2.757.089c0-1.131-.235-2.101-.713-2.91-.557-.979-1.353-1.467-2.385-1.467-1.068 0-1.88.49-2.436 1.467-.478.81-.713 1.795-.713 2.96 0 1.132.235 2.101.713 2.909.574.979 1.377 1.467 2.412 1.467 1.015 0 1.811-.499 2.386-1.493.49-.824.736-1.804.736-2.933zm11.393-3.723a4.503 4.503 0 0 0-.838-.075c-.934 0-1.657.362-2.165 1.086-.443.639-.665 1.447-.665 2.422v6.433h-2.655l.025-8.4c0-1.413-.034-2.7-.1-3.86h2.314l.097 2.346h.074c.28-.806.723-1.456 1.328-1.942a3.16 3.16 0 0 1 1.92-.657c.246 0 .468.018.665.05v2.597zm11.883 3.155c.006.414-.026.828-.098 1.236h-7.97c.03 1.211.416 2.138 1.156 2.776.672.572 1.54.858 2.607.858 1.18 0 2.257-.193 3.225-.58l.417 1.89c-1.132.507-2.468.759-4.01.759-1.854 0-3.31-.56-4.369-1.678-1.056-1.118-1.586-2.62-1.586-4.503 0-1.849.492-3.389 1.478-4.617 1.032-1.31 2.426-1.966 4.18-1.966 1.724 0 3.03.655 3.915 1.966.702 1.042 1.055 2.33 1.055 3.86zm-2.534-.706c.017-.808-.156-1.506-.516-2.095-.46-.757-1.166-1.136-2.117-1.136-.869 0-1.575.37-2.115 1.11-.442.59-.705 1.296-.786 2.12h5.534zM61.577 13.011c0 1.472-.442 2.579-1.325 3.323-.818.686-1.98 1.03-3.485 1.03-.747 0-1.386-.033-1.92-.098V9.228c.697-.113 1.449-.17 2.26-.17 1.434 0 2.515.31 3.244.933.817.704 1.226 1.71 1.226 3.02zm-1.384.037c0-.954-.253-1.686-.759-2.196-.506-.508-1.245-.763-2.218-.763-.413 0-.765.027-1.057.085v6.111c.162.025.457.036.887.036 1.004 0 1.78-.279 2.326-.836.546-.558.821-1.37.821-2.438zm8.722 1.248c0 .906-.259 1.649-.778 2.231-.543.6-1.263.898-2.162.898-.867 0-1.557-.286-2.072-.861-.514-.574-.77-1.298-.77-2.17 0-.913.264-1.662.795-2.243s1.245-.872 2.144-.872c.867 0 1.563.286 2.09.86.502.557.753 1.277.753 2.157zm-1.361.043c0-.544-.118-1.01-.352-1.399-.276-.47-.668-.705-1.177-.705-.528 0-.928.235-1.204.705-.235.389-.352.862-.352 1.422 0 .544.118 1.01.352 1.4.284.47.68.704 1.191.704.501 0 .894-.239 1.177-.717.243-.396.365-.866.365-1.41zm11.2-2.94l-1.847 5.892h-1.202l-.766-2.559a19.12 19.12 0 0 1-.474-1.903h-.024a13.915 13.915 0 0 1-.475 1.903l-.813 2.56h-1.216L70.2 11.398h1.35l.667 2.801c.161.662.294 1.294.4 1.891h.024c.098-.492.26-1.12.487-1.879l.838-2.812h1.07l.803 2.752c.194.672.352 1.318.473 1.94h.036c.09-.606.223-1.252.401-1.94l.717-2.752h1.288v-.001zm6.805 5.892h-1.313v-3.375c0-1.04-.395-1.56-1.19-1.56a1.186 1.186 0 0 0-.948.429c-.24.281-.37.64-.364 1.01v3.495H80.43v-4.207c0-.518-.016-1.08-.047-1.687h1.153l.062.921h.036c.153-.286.38-.522.68-.71.356-.22.754-.332 1.19-.332.55 0 1.01.177 1.374.534.453.436.68 1.087.68 1.952v3.53zm3.62 0h-1.312V8.695h1.311v8.596zm7.727-2.995c0 .906-.26 1.649-.778 2.231-.543.6-1.265.898-2.163.898-.868 0-1.558-.286-2.071-.861-.514-.574-.77-1.298-.77-2.17 0-.913.264-1.662.795-2.243.53-.581 1.245-.872 2.143-.872.868 0 1.563.286 2.091.86.501.557.753 1.277.753 2.157zm-1.363.043c0-.544-.117-1.01-.352-1.399-.274-.47-.667-.705-1.176-.705-.528 0-.929.235-1.203.705-.236.389-.352.862-.352 1.422 0 .544.117 1.01.352 1.4.284.47.68.704 1.19.704.502 0 .894-.239 1.177-.717.244-.397.364-.867.364-1.41zm7.715 2.952h-1.178l-.098-.679h-.036c-.404.542-.978.813-1.725.813-.557 0-1.008-.179-1.348-.534a1.672 1.672 0 0 1-.462-1.2c0-.72.3-1.269.906-1.649.604-.38 1.453-.566 2.546-.557v-.11c0-.776-.408-1.164-1.226-1.164-.582 0-1.096.146-1.54.436l-.266-.86c.548-.338 1.226-.508 2.025-.508 1.543 0 2.317.812 2.317 2.437v2.17c0 .589.029 1.058.085 1.405zm-1.362-2.025v-.909c-1.448-.025-2.172.372-2.172 1.188 0 .307.083.537.252.691a.92.92 0 0 0 .64.23c.289 0 .558-.091.804-.272.302-.212.48-.56.476-.928zm8.82 2.025h-1.164l-.062-.946h-.036c-.372.72-1.006 1.08-1.896 1.08-.712 0-1.304-.279-1.774-.836-.47-.558-.703-1.282-.703-2.17 0-.954.254-1.727.765-2.317.494-.55 1.1-.825 1.822-.825.793 0 1.348.267 1.663.8h.025V8.696h1.314v7.009c0 .573.015 1.102.046 1.587zm-1.36-2.485v-.982a1.491 1.491 0 0 0-.51-1.207 1.291 1.291 0 0 0-.879-.32c-.49 0-.873.193-1.154.582-.28.388-.421.885-.421 1.491 0 .582.134 1.055.403 1.419.284.387.668.581 1.147.581.431 0 .776-.161 1.037-.485.253-.299.377-.659.377-1.079zm12.586-.51c0 .906-.26 1.649-.778 2.231-.543.6-1.262.898-2.163.898-.865 0-1.555-.286-2.071-.861-.514-.574-.77-1.298-.77-2.17 0-.913.264-1.662.795-2.243.53-.581 1.245-.872 2.145-.872.866 0 1.563.286 2.09.86.5.557.752 1.277.752 2.157zm-1.36.043c0-.544-.118-1.01-.352-1.399-.277-.47-.668-.705-1.179-.705-.526 0-.926.235-1.203.705-.236.389-.352.862-.352 1.422 0 .544.118 1.01.352 1.4.284.47.68.704 1.19.704.502 0 .896-.239 1.18-.717.241-.397.364-.867.364-1.41zM129 17.29h-1.312v-3.375c0-1.04-.396-1.56-1.19-1.56-.39 0-.705.143-.948.429a1.513 1.513 0 0 0-.364 1.01v3.495h-1.314v-4.207c0-.518-.015-1.08-.046-1.687h1.152l.061.921h.037a1.9 1.9 0 0 1 .68-.71c.357-.22.754-.332 1.19-.332.55 0 1.009.177 1.373.534.455.436.68 1.087.68 1.952v3.53zm8.833-4.911h-1.445v2.862c0 .728.256 1.092.765 1.092.235 0 .43-.02.585-.061l.034.993c-.26.098-.6.147-1.02.147-.518 0-.922-.158-1.214-.473-.293-.315-.438-.845-.438-1.589v-2.97h-.863v-.981h.863v-1.08l1.286-.388v1.467h1.446v.982zm6.948 4.911h-1.313v-3.35c0-1.056-.396-1.585-1.189-1.585-.609 0-1.024.306-1.252.919a1.643 1.643 0 0 0-.062.471v3.544h-1.311V8.695h1.311v3.551h.025c.414-.646 1.006-.969 1.774-.969.543 0 .993.178 1.35.534.445.444.667 1.104.667 1.976v3.504zm7.168-3.225a3.1 3.1 0 0 1-.049.594h-3.936c.017.582.205 1.026.57 1.334.333.275.762.412 1.288.412.583 0 1.114-.092 1.592-.278l.206.91c-.56.242-1.219.363-1.982.363-.914 0-1.634-.269-2.155-.806-.524-.538-.783-1.259-.783-2.164 0-.889.242-1.629.73-2.219.508-.63 1.195-.945 2.063-.945.85 0 1.494.315 1.93.945.352.5.526 1.12.526 1.854zm-1.252-.339a1.761 1.761 0 0 0-.255-1.006c-.227-.364-.574-.546-1.044-.546a1.247 1.247 0 0 0-1.045.534 1.98 1.98 0 0 0-.39 1.018h2.734z" fill="#FFF"/></g></svg>