<svg width="346" height="380" viewBox="0 0 346 380" fill="none" xmlns="http://www.w3.org/2000/svg">
<path d="M345.9 151.399C345.9 144.299 339.7 137.799 328.5 133.099L280 112.799L328.5 92.4992C339.7 87.7992 345.9 81.2992 345.9 74.1992C345.9 67.0992 339.7 60.5992 328.5 55.8992L212.3 7.39922C190.6 -1.70078 155.3 -1.70078 133.6 7.39922L17.4996 55.8992C6.29961 60.5992 0.0996094 67.0992 0.0996094 74.1992C0.0996094 81.2992 6.29961 87.7992 17.4996 92.4992L65.9996 112.799L17.4996 133.099C6.29961 137.799 0.0996094 144.299 0.0996094 151.399C0.0996094 158.499 6.29961 164.999 17.4996 169.699L65.9996 189.999L17.4996 210.299C6.29961 214.999 0.0996094 221.499 0.0996094 228.599C0.0996094 235.699 6.29961 242.199 17.4996 246.899L65.9996 267.199L17.4996 287.499C6.29961 292.199 0.0996094 298.699 0.0996094 305.799C0.0996094 312.899 6.29961 319.399 17.4996 324.099L133.6 372.599C144.4 377.099 158.7 379.399 172.9 379.399C187.1 379.399 201.4 377.099 212.2 372.599L328.3 324.099C339.5 319.399 345.7 312.899 345.7 305.799C345.7 298.699 339.5 292.199 328.3 287.499L279.8 267.199L328.3 246.899C339.5 242.199 345.7 235.699 345.7 228.599C345.7 221.499 339.5 214.999 328.3 210.299L279.9 189.999L328.4 169.699C339.7 164.999 345.9 158.499 345.9 151.399ZM19.3996 87.8992C10.2996 84.0992 4.99961 79.0992 4.99961 74.1992C4.99961 69.2992 10.1996 64.2992 19.3996 60.4992L135.6 11.9992C145.9 7.69922 159.5 5.49922 173 5.49922C186.6 5.49922 200.1 7.69922 210.4 11.9992L326.5 60.4992C335.6 64.2992 340.9 69.2992 340.9 74.1992C340.9 79.0992 335.7 84.0992 326.5 87.8992L273.4 110.099L212.3 84.5992C190.6 75.4992 155.3 75.4992 133.6 84.5992L72.4996 110.099L19.3996 87.8992ZM267 112.799L210.4 136.399C189.8 144.999 156.2 144.999 135.6 136.399L78.9996 112.799L135.6 89.1992C145.9 84.8992 159.5 82.6992 173 82.6992C186.6 82.6992 200.1 84.8992 210.4 89.1992L267 112.799ZM326.6 292.099C335.7 295.899 341 300.899 341 305.799C341 310.699 335.8 315.699 326.6 319.499L210.4 367.999C189.8 376.599 156.2 376.599 135.6 367.999L19.3996 319.499C10.2996 315.699 4.99961 310.699 4.99961 305.799C4.99961 300.899 10.1996 295.899 19.3996 292.099L72.4996 269.899L133.6 295.399C144.4 299.899 158.7 302.199 172.9 302.199C187.1 302.199 201.4 299.899 212.2 295.399L273.3 269.899L326.6 292.099ZM78.9996 267.199L135.6 243.599C145.9 239.299 159.5 237.099 173 237.099C186.6 237.099 200.1 239.299 210.4 243.599L267 267.199L210.4 290.799C189.8 299.399 156.2 299.399 135.6 290.799L78.9996 267.199ZM326.6 214.899C335.7 218.699 341 223.699 341 228.599C341 233.499 335.8 238.499 326.6 242.299L273.5 264.499L212.3 238.999C190.6 229.899 155.3 229.899 133.6 238.999L72.4996 264.499L19.3996 242.299C10.2996 238.499 4.99961 233.499 4.99961 228.599C4.99961 223.699 10.1996 218.699 19.3996 214.899L72.4996 192.699L133.6 218.199C144.4 222.699 158.7 224.999 172.9 224.999C187.1 224.999 201.4 222.699 212.2 218.199L273.3 192.699L326.6 214.899ZM78.9996 189.999L135.6 166.399C145.9 162.099 159.5 159.899 173 159.899C186.6 159.899 200.1 162.099 210.4 166.399L267 189.999L210.4 213.599C189.8 222.199 156.2 222.199 135.6 213.599L78.9996 189.999ZM273.5 187.299L212.4 161.799C190.7 152.699 155.4 152.699 133.7 161.799L72.5996 187.299L19.4996 165.099C10.3996 161.299 5.09961 156.299 5.09961 151.399C5.09961 146.499 10.2996 141.499 19.4996 137.699L72.5996 115.499L133.7 140.999C144.5 145.499 158.8 147.799 173 147.799C187.2 147.799 201.5 145.499 212.3 140.999L273.4 115.499L326.5 137.699C335.6 141.499 340.9 146.499 340.9 151.399C340.9 156.299 335.7 161.299 326.5 165.099L273.5 187.299Z" fill="#a7a7a7"/>
</svg>
