<svg width="406" height="406" viewBox="0 0 406 406" fill="none" xmlns="http://www.w3.org/2000/svg">
<path d="M405.1 200.9C405.1 200.2 405.1 199.5 405.1 198.8C405.1 183 402.9 167.6 398.8 153.1C376.5 65.7004 297.1 0.900391 203 0.900391C91.6004 0.900391 0.900391 91.6004 0.900391 203C0.900391 314.4 91.5004 405.1 203 405.1C311.4 405.1 400.1 319.3 404.9 212.1C405 211.3 405 210.6 405 209.8C405.1 208.5 405.1 207.2 405.1 205.9C405.1 205.6 405.1 205.3 405.1 205C405.1 204.4 405.1 203.8 405.1 203.2C405.1 202.3 405.1 201.6 405.1 200.9ZM400 203.7C399.9 207.6 399.6 211.5 399.2 215.4C394.7 241.4 371.9 261.3 344.6 261.3C314 261.3 289.2 236.4 289.2 205.9C289.2 175.4 314.1 150.5 344.6 150.5C373.9 150.5 398 173.4 399.9 202.2C400 202.6 400 203.1 400 203.7ZM344.7 145.4C311.4 145.4 284.3 172.5 284.3 205.8C284.3 239.1 311.4 266.2 344.7 266.2C363.6 266.2 380.5 257.5 391.6 243.8C377.3 274.4 346.2 295.6 310.2 295.6C260.7 295.6 220.4 255.3 220.4 205.8C220.4 156.3 260.7 116 310.2 116C346.1 116 377.2 137.2 391.6 167.8C380.5 154.1 363.6 145.4 344.7 145.4ZM310.2 111C257.9 111 215.4 153.5 215.4 205.8C215.4 258.1 257.9 300.6 310.2 300.6C339.2 300.6 365.3 287.5 382.7 266.8C360.8 304 320.2 329.1 274 329.1C204.5 329.1 147.9 272.5 147.9 203C147.9 133.5 204.5 76.9004 274 76.9004C327.1 76.9004 372.7 109.9 391.2 156.5C374.5 129.2 344.5 111 310.2 111ZM274 71.9004C201.7 71.9004 142.9 130.7 142.9 203C142.9 275.3 201.7 334.1 274 334.1C313.2 334.1 348.3 316.8 372.4 289.5C343.1 333 293.4 361.7 237.1 361.7C147.2 361.7 74.1004 288.6 74.1004 198.7C74.1004 108.8 147.2 35.7004 237.1 35.7004C306.8 35.7004 366.5 79.7004 389.7 141.4C367.6 100.1 324 71.9004 274 71.9004ZM203 400.1C94.3004 400.1 5.90039 311.7 5.90039 203C5.90039 94.3004 94.3004 5.90039 203 5.90039C267.6 5.90039 325 37.1004 360.9 85.2004C330.2 51.7004 286 30.7004 237.1 30.7004C144.4 30.7004 69.1004 106.1 69.1004 198.7C69.1004 291.3 144.5 366.7 237.1 366.7C301.2 366.7 357 330.6 385.3 277.8C355.8 349.5 285.2 400.1 203 400.1Z" fill="#a7a7a7"/>
</svg>
